# Blender v2.79 (sub 0) OBJ File: 'cajabase.blend'
# www.blender.org
mtllib cajabase.mtl
o Cube
v 1.103649 -1.000000 -1.000000
v 1.103649 -1.000000 1.000000
v -0.896351 -1.000000 1.000000
v -0.896351 -1.000000 -1.000000
v 1.103649 1.000000 -0.999999
v 1.103648 1.000000 1.000001
v -0.896351 1.000000 1.000000
v -0.896351 1.000000 -1.000000
v 0.923221 -1.000000 -0.819572
v 0.923221 -1.000000 0.819572
v -0.715923 -1.000000 0.819572
v -0.715923 -1.000000 -0.819572
v 0.923221 1.000000 -0.819571
v -0.715923 1.000000 -0.819572
v -0.715923 1.000000 0.819572
v 0.923220 1.000000 0.819573
v 1.103649 -0.819572 -0.819572
v 1.103649 0.819572 -0.819571
v 1.103648 0.819572 0.819573
v 1.103649 -0.819572 0.819572
v 0.923221 -0.819572 1.000000
v 0.923220 0.819572 1.000000
v -0.715923 0.819572 1.000000
v -0.715923 -0.819572 1.000000
v -0.896351 -0.819572 0.819572
v -0.896351 0.819572 0.819572
v -0.896351 0.819572 -0.819572
v -0.896351 -0.819572 -0.819572
v 0.923221 0.819572 -1.000000
v 0.923221 -0.819572 -1.000000
v -0.715923 -0.819572 -1.000000
v -0.715923 0.819572 -1.000000
v 0.923221 -0.937954 -0.819572
v 0.923221 -0.937954 0.819572
v -0.715923 -0.937954 0.819572
v -0.715923 -0.937954 -0.819572
v 0.923221 0.937954 -0.819571
v -0.715923 0.937954 -0.819572
v -0.715923 0.937954 0.819572
v 0.923220 0.937954 0.819573
v 1.041603 -0.819572 -0.819572
v 1.041603 0.819572 -0.819571
v 1.041602 0.819572 0.819573
v 1.041603 -0.819572 0.819572
v 0.923221 -0.819572 0.937954
v 0.923220 0.819572 0.937954
v -0.715923 0.819572 0.937953
v -0.715923 -0.819572 0.937954
v -0.834305 -0.819572 0.819572
v -0.834305 0.819572 0.819572
v -0.834305 0.819572 -0.819572
v -0.834304 -0.819572 -0.819572
v 0.923221 0.819572 -0.937953
v 0.923221 -0.819572 -0.937954
v -0.715923 -0.819572 -0.937954
v -0.715923 0.819572 -0.937954
v 0.923221 -0.937954 -0.819572
v 0.923221 -0.937954 0.819572
v -0.715923 -0.937954 0.819572
v -0.715923 -0.937954 -0.819572
v 0.923221 0.937954 -0.819571
v -0.715923 0.937954 -0.819572
v -0.715923 0.937954 0.819572
v 0.923220 0.937954 0.819573
v 1.041603 -0.819572 -0.819572
v 1.041603 0.819572 -0.819571
v 1.041602 0.819572 0.819573
v 1.041603 -0.819572 0.819572
v 0.923221 -0.819572 0.937954
v 0.923220 0.819572 0.937954
v -0.715923 0.819572 0.937953
v -0.715923 -0.819572 0.937954
v -0.834305 -0.819572 0.819572
v -0.834305 0.819572 0.819572
v -0.834305 0.819572 -0.819572
v -0.834304 -0.819572 -0.819572
v 0.923221 0.819572 -0.937953
v 0.923221 -0.819572 -0.937954
v -0.715923 -0.819572 -0.937954
v -0.715923 0.819572 -0.937954
v 1.843874 -0.819572 -0.819572
v 0.992952 0.059895 -0.291864
v 1.843874 -0.360776 -0.819572
v 1.843874 0.458796 -0.819572
v 1.035657 0.789926 -0.291022
v 1.028477 -0.789926 -0.287909
v 0.992952 0.042189 -0.286454
v 0.992953 0.410389 -0.291864
v 1.032523 0.490333 -0.252367
v 0.992953 -0.311318 -0.251505
v 1.022078 -0.390422 -0.252235
v 1.031269 0.420787 0.000000
v 1.012058 0.804158 0.000000
v 1.012058 0.502675 0.000000
v 1.031268 0.070293 0.000000
v 0.992953 -0.333001 0.000000
v 0.992952 0.017493 0.000000
v 0.976829 -0.789926 0.000000
v 0.976829 -0.390422 0.000000
vn 1.0000 0.0000 0.0000
vn 0.0000 -0.0000 -1.0000
vn 0.0000 1.0000 0.0000
vn -1.0000 -0.0000 0.0000
vn 0.0000 -1.0000 0.0000
vn 0.0000 -0.0000 1.0000
usemtl Material
s off
f 14//1 15//1 39//1 38//1
f 25//2 26//2 50//2 49//2
f 20//3 17//3 41//3 44//3
f 10//2 11//2 35//2 34//2
f 21//4 22//4 46//4 45//4
f 16//4 13//4 37//4 40//4
f 1//5 2//5 10//5 9//5
f 2//5 3//5 11//5 10//5
f 3//5 4//5 12//5 11//5
f 4//5 1//5 9//5 12//5
f 5//3 8//3 14//3 13//3
f 8//3 7//3 15//3 14//3
f 7//3 6//3 16//3 15//3
f 6//3 5//3 13//3 16//3
f 1//1 5//1 18//1 17//1
f 5//1 6//1 19//1 18//1
f 6//1 2//1 20//1 19//1
f 2//1 1//1 17//1 20//1
f 2//6 6//6 22//6 21//6
f 6//6 7//6 23//6 22//6
f 7//6 3//6 24//6 23//6
f 3//6 2//6 21//6 24//6
f 3//4 7//4 26//4 25//4
f 7//4 8//4 27//4 26//4
f 8//4 4//4 28//4 27//4
f 4//4 3//4 25//4 28//4
f 5//2 1//2 30//2 29//2
f 1//2 4//2 31//2 30//2
f 4//2 8//2 32//2 31//2
f 8//2 5//2 29//2 32//2
f 77//2 78//2 79//2 80//2
f 73//4 74//4 75//4 76//4
f 69//6 70//6 71//6 72//6
f 65//1 66//1 67//1 68//1
f 61//3 62//3 63//3 64//3
f 57//5 58//5 59//5 60//5
f 24//3 21//3 45//3 48//3
f 29//4 30//4 54//4 53//4
f 11//1 12//1 36//1 35//1
f 18//5 19//5 43//5 42//5
f 28//3 25//3 49//3 52//3
f 15//2 16//2 40//2 39//2
f 22//5 23//5 47//5 46//5
f 32//5 29//5 53//5 56//5
f 19//2 20//2 44//2 43//2
f 26//5 27//5 51//5 50//5
f 23//1 24//1 48//1 47//1
f 30//3 31//3 55//3 54//3
f 27//6 28//6 52//6 51//6
f 31//1 32//1 56//1 55//1
f 9//4 10//4 34//4 33//4
f 13//6 14//6 38//6 37//6
f 12//6 9//6 33//6 36//6
f 17//6 18//6 42//6 41//6
l 81 83
l 97 87
l 90 96
l 82 95
l 86 98
l 89 94
l 93 85
l 92 88
l 99 91
