# Blender v2.79 (sub 0) OBJ File: ''
# www.blender.org
mtllib laberintoNov.mtl
o Cube.000_Cube.003
v -7.017210 0.007259 0.991103
v -0.004712 0.007259 0.973638
v -0.004519 0.007259 1.060647
v -7.017018 0.007259 1.078113
v -7.017208 1.039443 0.991103
v -7.017017 1.039443 1.078113
v -0.004520 1.039443 1.060647
v -0.004710 1.039443 0.973638
v -7.958729 0.007259 -8.406391
v -7.958729 0.007258 8.478322
v -8.040910 0.007258 8.478319
v -8.040910 0.007259 -8.406394
v -7.958729 1.039443 -8.406386
v -8.040910 1.039443 -8.406391
v -8.040910 1.039443 8.478317
v -7.958729 1.039443 8.478327
v -8.000006 0.007258 8.430810
v 1.049751 0.007258 8.408270
v 1.049944 0.007258 8.495280
v -7.999814 0.007258 8.517819
v -8.000004 1.039443 8.430810
v -7.999812 1.039443 8.517819
v 1.049943 1.039443 8.495280
v 1.049754 1.039443 8.408270
v -8.045250 0.007259 -8.450169
v 1.031824 0.007259 -8.472776
v 1.032017 0.007259 -8.385766
v -8.045059 0.007259 -8.363158
v -8.045248 1.039443 -8.450169
v -8.045057 1.039443 -8.363158
v 1.032016 1.039443 -8.385766
v 1.031827 1.039443 -8.472776
v -6.999942 0.018562 -7.452903
v 0.002774 0.018562 -7.470345
v 0.002963 0.018562 -7.385242
v -6.999754 0.018562 -7.367800
v -6.999940 1.028140 -7.452903
v -6.999753 1.028140 -7.367800
v 0.002962 1.028140 -7.385242
v 0.002776 1.028140 -7.470345
v -7.014832 0.006286 -3.236014
v -0.007222 0.006286 -3.253466
v -0.007029 0.006286 -3.166293
v -7.014640 0.006286 -3.148840
v -7.014831 1.040416 -3.236014
v -7.014639 1.040416 -3.148840
v -0.007030 1.040416 -3.166293
v -0.007220 1.040416 -3.253466
v -7.016197 0.002731 -2.150512
v 0.005553 0.002731 -2.168001
v 0.005747 0.002731 -2.080228
v -7.016004 0.002731 -2.062739
v -7.016196 1.043971 -2.150512
v -7.016003 1.043971 -2.062739
v 0.005747 1.043971 -2.080228
v 0.005555 1.043971 -2.168001
v 8.002955 0.007259 -5.196504
v 8.002955 0.007258 8.444790
v 7.920775 0.007258 8.444789
v 7.920775 0.007259 -5.196507
v 8.002955 1.039443 -5.196501
v 7.920775 1.039443 -5.196504
v 7.920774 1.039443 8.444787
v 8.002955 1.039443 8.444795
v -6.922300 0.007259 -7.461367
v -6.922300 0.007259 -3.159466
v -7.004480 0.007259 -3.159466
v -7.004480 0.007259 -7.461369
v -6.922300 1.039443 -7.461367
v -7.004480 1.039443 -7.461369
v -7.004481 1.039443 -3.159466
v -6.922300 1.039443 -3.159464
v -0.003035 0.007259 -7.435837
v -0.003035 0.007259 -3.198902
v -0.085215 0.007259 -3.198903
v -0.085215 0.007259 -7.435838
v -0.003035 1.039443 -7.435836
v -0.085215 1.039443 -7.435837
v -0.085215 1.039443 -3.198903
v -0.003035 1.039443 -3.198901
v -6.998599 0.007259 2.097773
v -3.969150 0.007259 2.090228
v -3.968957 0.007259 2.177236
v -6.998406 0.007259 2.184782
v -6.998598 1.039443 2.097773
v -6.998405 1.039443 2.184782
v -3.968957 1.039443 2.177236
v -3.969149 1.039443 2.090228
v -6.934315 0.007259 -2.117207
v -6.934315 0.007259 1.030817
v -7.016495 0.007259 1.030816
v -7.016495 0.007259 -2.117208
v -6.934315 1.039443 -2.117206
v -7.016495 1.039443 -2.117207
v -7.016496 1.039443 1.030816
v -6.934315 1.039443 1.030817
v 0.004897 0.007259 -2.155989
v 0.004897 0.007259 1.056564
v -0.077284 0.007259 1.056564
v -0.077284 0.007259 -2.155990
v 0.004897 1.039443 -2.155988
v -0.077284 1.039443 -2.155989
v -0.077284 1.039443 1.056563
v 0.004897 1.039443 1.056566
v -6.997272 0.007258 7.415465
v -3.967823 0.007258 7.407921
v -3.967630 0.007258 7.494929
v -6.997079 0.007258 7.502475
v -6.997271 1.039443 7.415465
v -6.997078 1.039443 7.502475
v -3.967630 1.039443 7.494929
v -3.967822 1.039443 7.407921
v -3.023052 0.007258 7.398882
v 0.006396 0.007258 7.391337
v 0.006590 0.007258 7.478347
v -3.022860 0.007258 7.485891
v -3.023052 1.039443 7.398882
v -3.022859 1.039443 7.485891
v 0.006589 1.039443 7.478347
v 0.006397 1.039443 7.391337
v -2.982460 0.007259 2.132833
v 0.046988 0.007259 2.125287
v 0.047182 0.007259 2.212296
v -2.982267 0.007259 2.219842
v -2.982460 1.039443 2.132833
v -2.982267 1.039443 2.219842
v 0.047181 1.039443 2.212296
v 0.046989 1.039443 2.125287
v -6.906008 0.007259 2.157381
v -6.906008 0.007258 7.445582
v -6.988188 0.007258 7.445581
v -6.988188 0.007259 2.157380
v -6.906008 1.039443 2.157382
v -6.988188 1.039443 2.157381
v -6.988189 1.039443 7.445581
v -6.906008 1.039443 7.445583
v -3.978759 0.007259 2.149824
v -3.978759 0.007258 7.438024
v -4.060939 0.007258 7.438024
v -4.060939 0.007259 2.149822
v -3.978759 1.039443 2.149825
v -4.060939 1.039443 2.149823
v -4.060940 1.039443 7.438023
v -3.978759 1.039443 7.438025
v -2.937795 0.007259 2.179325
v -2.937795 0.007258 7.467525
v -3.019976 0.007258 7.467525
v -3.019976 0.007259 2.179323
v -2.937795 1.039443 2.179326
v -3.019976 1.039443 2.179324
v -3.019976 1.039443 7.467525
v -2.937795 1.039443 7.467526
v 0.046212 0.007259 2.176605
v 0.046212 0.007258 7.464807
v -0.035968 0.007258 7.464805
v -0.035968 0.007259 2.176604
v 0.046212 1.039443 2.176606
v -0.035968 1.039443 2.176605
v -0.035968 1.039443 7.464805
v 0.046212 1.039443 7.464808
v 1.041153 0.007259 -8.460003
v 1.041153 0.007259 -6.372071
v 0.958972 0.007259 -6.372071
v 0.958972 0.007259 -8.460005
v 1.041153 1.039443 -8.460003
v 0.958972 1.039443 -8.460003
v 0.958972 1.039443 -6.372071
v 1.041153 1.039443 -6.372070
v 1.030272 0.007259 -5.283038
v 1.030272 0.007259 1.013679
v 0.948091 0.007259 1.013678
v 0.948091 0.007259 -5.283040
v 1.030272 1.039443 -5.283037
v 0.948091 1.039443 -5.283038
v 0.948091 1.039443 1.013678
v 1.030272 1.039443 1.013681
v 7.024795 0.007259 -4.230929
v 7.024795 0.007259 1.038285
v 6.942615 0.007259 1.038284
v 6.942615 0.007259 -4.230931
v 7.024795 1.039443 -4.230928
v 6.942615 1.039443 -4.230930
v 6.942614 1.039443 1.038284
v 7.024795 1.039443 1.038286
v 5.084484 0.007259 -4.210743
v 5.084484 0.007259 1.058471
v 5.002304 0.007259 1.058471
v 5.002304 0.007259 -4.210744
v 5.084484 1.039443 -4.210742
v 5.002304 1.039443 -4.210743
v 5.002303 1.039443 1.058470
v 5.084484 1.039443 1.058473
v 4.008773 0.007259 -4.326909
v 4.008773 0.007259 0.942307
v 3.926593 0.007259 0.942306
v 3.926593 0.007259 -4.326910
v 4.008773 1.039443 -4.326906
v 3.926593 1.039443 -4.326909
v 3.926593 1.039443 0.942306
v 4.008773 1.039443 0.942308
v 0.975616 0.007259 0.931001
v 4.005064 0.007259 0.923456
v 4.005258 0.007259 1.010466
v 0.975808 0.007259 1.018011
v 0.975616 1.039443 0.931001
v 0.975809 1.039443 1.018011
v 4.005257 1.039443 1.010466
v 4.005065 1.039443 0.923456
v 0.990957 0.007259 -5.297027
v 2.991729 0.007259 -5.302009
v 2.991922 0.007259 -5.215001
v 0.991150 0.007259 -5.210017
v 0.990958 1.039443 -5.297027
v 0.991150 1.039443 -5.210017
v 2.991922 1.039443 -5.215001
v 2.991730 1.039443 -5.302009
v 0.964589 0.007259 -6.433829
v 3.004987 0.007259 -6.438911
v 3.005181 0.007259 -6.351902
v 0.964782 0.007259 -6.346820
v 0.964590 1.039443 -6.433829
v 0.964783 1.039443 -6.346820
v 3.005180 1.039443 -6.351902
v 3.004988 1.039443 -6.438910
v 4.029222 0.007259 -7.415422
v 4.029222 0.007259 -5.274406
v 3.947041 0.007259 -5.274407
v 3.947041 0.007259 -7.415423
v 4.029222 1.039443 -7.415422
v 3.947041 1.039443 -7.415423
v 3.947041 1.039443 -5.274407
v 4.029222 1.039443 -5.274406
v 3.006639 0.007259 -8.459817
v 3.006639 0.007259 -6.389927
v 2.924458 0.007259 -6.389927
v 2.924458 0.007259 -8.459818
v 3.006639 1.039443 -8.459817
v 2.924458 1.039443 -8.459817
v 2.924458 1.039443 -6.389928
v 3.006639 1.039443 -6.389927
v 2.938228 0.007259 -8.463964
v 6.995818 0.007259 -8.474070
v 6.996011 0.007259 -8.387059
v 2.938420 0.007259 -8.376954
v 2.938229 1.039443 -8.463964
v 2.938421 1.039443 -8.376954
v 6.996011 1.039443 -8.387059
v 6.995820 1.039443 -8.474070
v 3.984493 0.019322 -7.425655
v 5.994011 0.019322 -7.430660
v 5.994200 0.019322 -7.345685
v 3.984681 0.019322 -7.340680
v 3.984493 1.027387 -7.425655
v 3.984682 1.027387 -7.340680
v 5.994200 1.027387 -7.345685
v 5.994012 1.027387 -7.430660
v 5.989430 0.007259 -7.397668
v 5.989430 0.007259 -5.285580
v 5.907250 0.007259 -5.285580
v 5.907250 0.007259 -7.397668
v 5.989430 1.039443 -7.397666
v 5.907250 1.039443 -7.397668
v 5.907249 1.039443 -5.285580
v 5.989430 1.039443 -5.285579
v 6.997831 0.007259 -8.479980
v 6.997831 0.007259 -5.201882
v 6.915651 0.007259 -5.201882
v 6.915651 0.007259 -8.479980
v 6.997831 1.039443 -8.479979
v 6.915651 1.039443 -8.479980
v 6.915650 1.039443 -5.201883
v 6.997831 1.039443 -5.201880
v 6.943391 0.019322 -5.276411
v 7.997947 0.019322 -5.279037
v 7.998136 0.019322 -5.194062
v 6.943580 0.019322 -5.191435
v 6.943391 1.027387 -5.276411
v 6.943580 1.027387 -5.191435
v 7.998136 1.027387 -5.194062
v 7.997947 1.027387 -5.279037
v 5.001600 0.019322 -4.216847
v 7.022714 0.019322 -4.221881
v 7.022902 0.019322 -4.136905
v 5.001789 0.019322 -4.131872
v 5.001601 1.027387 -4.216847
v 5.001789 1.027387 -4.131872
v 7.022902 1.027387 -4.136905
v 7.022714 1.027387 -4.221881
v 5.081514 0.019322 0.969344
v 6.986914 0.019322 0.964598
v 6.987103 0.019322 1.049574
v 5.081702 0.019322 1.054320
v 5.081514 1.027386 0.969344
v 5.081703 1.027386 1.054320
v 6.987103 1.027386 1.049574
v 6.986915 1.027386 0.964598
v 3.984493 0.019322 -5.359453
v 5.994011 0.019322 -5.364458
v 5.994200 0.019322 -5.279482
v 3.984681 0.019322 -5.274477
v 3.984493 1.027387 -5.359453
v 3.984682 1.027387 -5.274477
v 5.994200 1.027387 -5.279482
v 5.994012 1.027387 -5.364458
v 3.009424 0.007259 -5.268548
v 3.009424 0.007259 -4.254021
v 2.927244 0.007259 -4.254021
v 2.927244 0.007259 -5.268549
v 3.009424 1.039443 -5.268548
v 2.927244 1.039443 -5.268548
v 2.927244 1.039443 -4.254021
v 3.009424 1.039443 -4.254021
v 2.968602 0.019322 -4.316792
v 3.996668 0.019322 -4.319353
v 3.996857 0.019322 -4.234378
v 2.968791 0.019322 -4.231816
v 2.968602 1.027387 -4.316792
v 2.968791 1.027387 -4.231816
v 3.996857 1.027387 -4.234378
v 3.996668 1.027387 -4.319353
v 6.982672 0.019322 7.346694
v 6.982862 0.019322 7.431676
v 1.012528 0.019322 7.446546
v 1.012339 0.019322 7.361563
v 6.982671 1.027386 7.346694
v 1.012337 1.027386 7.361563
v 1.012529 1.027386 7.446546
v 6.982862 1.027386 7.431676
v 5.007621 0.019322 6.311362
v 5.007810 0.019322 6.396346
v 1.061038 0.019322 6.406176
v 1.060849 0.019322 6.321192
v 5.007620 1.027386 6.311362
v 1.060848 1.027386 6.321192
v 1.061039 1.027386 6.406176
v 5.007810 1.027386 6.396346
v 1.077353 0.007259 2.186292
v 1.077353 0.007258 6.396037
v 0.995172 0.007258 6.396035
v 0.995172 0.007259 2.186291
v 1.077353 1.039443 2.186293
v 0.995172 1.039443 2.186292
v 0.995172 1.039443 6.396035
v 1.077353 1.039443 6.396038
v 1.077353 0.007258 8.432813
v 0.995172 0.007258 8.432813
v 0.995172 0.007258 7.404366
v 1.077353 0.007258 7.404366
v 1.077353 1.039443 8.432813
v 1.077353 1.039443 7.404366
v 0.995172 1.039443 7.404366
v 0.995172 1.039443 8.432813
v 6.985853 0.007258 8.432813
v 6.903673 0.007258 8.432813
v 6.903673 0.007258 7.404366
v 6.985853 0.007258 7.404366
v 6.985853 1.039443 8.432813
v 6.985853 1.039443 7.404366
v 6.903672 1.039443 7.404366
v 6.903673 1.039443 8.432813
v 5.006380 0.007259 2.119254
v 5.006380 0.007258 6.328997
v 4.924200 0.007258 6.328997
v 4.924200 0.007259 2.119253
v 5.006381 1.039443 2.119255
v 4.924200 1.039443 2.119254
v 4.924200 1.039443 6.328996
v 5.006380 1.039443 6.328998
v 5.007621 0.019322 2.112927
v 5.007810 0.019322 2.197910
v 1.061038 0.019322 2.207741
v 1.060849 0.019322 2.122756
v 5.007620 1.027386 2.112927
v 1.060848 1.027386 2.122756
v 1.061039 1.027386 2.207741
v 5.007810 1.027386 2.197910
v 6.029053 0.007259 2.119254
v 6.029053 0.007258 6.328997
v 5.946873 0.007258 6.328997
v 5.946873 0.007259 2.119253
v 6.029053 1.039443 2.119255
v 5.946873 1.039443 2.119254
v 5.946872 1.039443 6.328996
v 6.029053 1.039443 6.328998
v 6.962439 0.007259 2.119254
v 6.962439 0.007258 6.328997
v 6.880259 0.007258 6.328997
v 6.880259 0.007259 2.119253
v 6.962440 1.039443 2.119255
v 6.880259 1.039443 2.119254
v 6.880259 1.039443 6.328996
v 6.962439 1.039443 6.328998
v 5.955455 0.019322 6.247498
v 6.983521 0.019322 6.244936
v 6.983709 0.019322 6.329912
v 5.955643 0.019322 6.332473
v 5.955455 1.027386 6.247498
v 5.955644 1.027386 6.332473
v 6.983709 1.027386 6.329912
v 6.983521 1.027386 6.244936
v 5.955455 0.019322 2.091226
v 6.983521 0.019322 2.088666
v 6.983709 0.019322 2.173642
v 5.955643 0.019322 2.176202
v 5.955455 1.027386 2.091226
v 5.955644 1.027386 2.176202
v 6.983709 1.027386 2.173642
v 6.983521 1.027386 2.088666
vn -0.0000 -1.0000 -0.0000
vn 0.0000 1.0000 -0.0000
vn -0.0025 0.0000 -1.0000
vn 1.0000 -0.0000 -0.0022
vn 0.0025 0.0000 1.0000
vn -1.0000 0.0000 0.0022
vn 1.0000 -0.0000 0.0000
vn -0.0001 -0.0000 1.0000
vn -1.0000 -0.0000 0.0000
vn 0.0000 0.0000 -1.0000
vn -0.0000 -0.0000 1.0000
usemtl Material.001
s 1
f 1//1 2//1 3//1 4//1
f 5//2 6//2 7//2 8//2
f 1//3 5//3 8//3 2//3
f 2//4 8//4 7//4 3//4
f 3//5 7//5 6//5 4//5
f 5//6 1//6 4//6 6//6
f 9//1 10//1 11//1 12//1
f 13//2 14//2 15//2 16//2
f 9//7 13//7 16//7 10//7
f 10//8 16//8 15//8 11//8
f 11//9 15//9 14//9 12//9
f 13//10 9//10 12//10 14//10
f 17//1 18//1 19//1 20//1
f 21//2 22//2 23//2 24//2
f 17//3 21//3 24//3 18//3
f 18//4 24//4 23//4 19//4
f 19//5 23//5 22//5 20//5
f 21//6 17//6 20//6 22//6
f 25//1 26//1 27//1 28//1
f 29//2 30//2 31//2 32//2
f 25//3 29//3 32//3 26//3
f 26//4 32//4 31//4 27//4
f 27//5 31//5 30//5 28//5
f 29//6 25//6 28//6 30//6
f 33//1 34//1 35//1 36//1
f 37//2 38//2 39//2 40//2
f 33//3 37//3 40//3 34//3
f 34//4 40//4 39//4 35//4
f 35//5 39//5 38//5 36//5
f 37//6 33//6 36//6 38//6
f 41//1 42//1 43//1 44//1
f 45//2 46//2 47//2 48//2
f 41//3 45//3 48//3 42//3
f 42//4 48//4 47//4 43//4
f 43//5 47//5 46//5 44//5
f 45//6 41//6 44//6 46//6
f 49//1 50//1 51//1 52//1
f 53//2 54//2 55//2 56//2
f 49//3 53//3 56//3 50//3
f 50//4 56//4 55//4 51//4
f 51//5 55//5 54//5 52//5
f 53//6 49//6 52//6 54//6
f 57//1 58//1 59//1 60//1
f 61//2 62//2 63//2 64//2
f 57//7 61//7 64//7 58//7
f 58//11 64//11 63//11 59//11
f 59//9 63//9 62//9 60//9
f 61//10 57//10 60//10 62//10
f 65//1 66//1 67//1 68//1
f 69//2 70//2 71//2 72//2
f 65//7 69//7 72//7 66//7
f 66//11 72//11 71//11 67//11
f 67//9 71//9 70//9 68//9
f 69//10 65//10 68//10 70//10
f 73//1 74//1 75//1 76//1
f 77//2 78//2 79//2 80//2
f 73//7 77//7 80//7 74//7
f 74//11 80//11 79//11 75//11
f 75//9 79//9 78//9 76//9
f 77//10 73//10 76//10 78//10
f 81//1 82//1 83//1 84//1
f 85//2 86//2 87//2 88//2
f 81//3 85//3 88//3 82//3
f 82//4 88//4 87//4 83//4
f 83//5 87//5 86//5 84//5
f 85//6 81//6 84//6 86//6
f 89//1 90//1 91//1 92//1
f 93//2 94//2 95//2 96//2
f 89//7 93//7 96//7 90//7
f 90//11 96//11 95//11 91//11
f 91//9 95//9 94//9 92//9
f 93//10 89//10 92//10 94//10
f 97//1 98//1 99//1 100//1
f 101//2 102//2 103//2 104//2
f 97//7 101//7 104//7 98//7
f 98//11 104//11 103//11 99//11
f 99//9 103//9 102//9 100//9
f 101//10 97//10 100//10 102//10
f 105//1 106//1 107//1 108//1
f 109//2 110//2 111//2 112//2
f 105//3 109//3 112//3 106//3
f 106//4 112//4 111//4 107//4
f 107//5 111//5 110//5 108//5
f 109//6 105//6 108//6 110//6
f 113//1 114//1 115//1 116//1
f 117//2 118//2 119//2 120//2
f 113//3 117//3 120//3 114//3
f 114//4 120//4 119//4 115//4
f 115//5 119//5 118//5 116//5
f 117//6 113//6 116//6 118//6
f 121//1 122//1 123//1 124//1
f 125//2 126//2 127//2 128//2
f 121//3 125//3 128//3 122//3
f 122//4 128//4 127//4 123//4
f 123//5 127//5 126//5 124//5
f 125//6 121//6 124//6 126//6
f 129//1 130//1 131//1 132//1
f 133//2 134//2 135//2 136//2
f 129//7 133//7 136//7 130//7
f 130//11 136//11 135//11 131//11
f 131//9 135//9 134//9 132//9
f 133//10 129//10 132//10 134//10
f 137//1 138//1 139//1 140//1
f 141//2 142//2 143//2 144//2
f 137//7 141//7 144//7 138//7
f 138//11 144//11 143//11 139//11
f 139//9 143//9 142//9 140//9
f 141//10 137//10 140//10 142//10
f 145//1 146//1 147//1 148//1
f 149//2 150//2 151//2 152//2
f 145//7 149//7 152//7 146//7
f 146//11 152//11 151//11 147//11
f 147//9 151//9 150//9 148//9
f 149//10 145//10 148//10 150//10
f 153//1 154//1 155//1 156//1
f 157//2 158//2 159//2 160//2
f 153//7 157//7 160//7 154//7
f 154//11 160//11 159//11 155//11
f 155//9 159//9 158//9 156//9
f 157//10 153//10 156//10 158//10
f 161//1 162//1 163//1 164//1
f 165//2 166//2 167//2 168//2
f 161//7 165//7 168//7 162//7
f 162//11 168//11 167//11 163//11
f 163//9 167//9 166//9 164//9
f 165//10 161//10 164//10 166//10
f 169//1 170//1 171//1 172//1
f 173//2 174//2 175//2 176//2
f 169//7 173//7 176//7 170//7
f 170//11 176//11 175//11 171//11
f 171//9 175//9 174//9 172//9
f 173//10 169//10 172//10 174//10
f 177//1 178//1 179//1 180//1
f 181//2 182//2 183//2 184//2
f 177//7 181//7 184//7 178//7
f 178//11 184//11 183//11 179//11
f 179//9 183//9 182//9 180//9
f 181//10 177//10 180//10 182//10
f 185//1 186//1 187//1 188//1
f 189//2 190//2 191//2 192//2
f 185//7 189//7 192//7 186//7
f 186//11 192//11 191//11 187//11
f 187//9 191//9 190//9 188//9
f 189//10 185//10 188//10 190//10
f 193//1 194//1 195//1 196//1
f 197//2 198//2 199//2 200//2
f 193//7 197//7 200//7 194//7
f 194//11 200//11 199//11 195//11
f 195//9 199//9 198//9 196//9
f 197//10 193//10 196//10 198//10
f 201//1 202//1 203//1 204//1
f 205//2 206//2 207//2 208//2
f 201//3 205//3 208//3 202//3
f 202//4 208//4 207//4 203//4
f 203//5 207//5 206//5 204//5
f 205//6 201//6 204//6 206//6
f 209//1 210//1 211//1 212//1
f 213//2 214//2 215//2 216//2
f 209//3 213//3 216//3 210//3
f 210//4 216//4 215//4 211//4
f 211//5 215//5 214//5 212//5
f 213//6 209//6 212//6 214//6
f 217//1 218//1 219//1 220//1
f 221//2 222//2 223//2 224//2
f 217//3 221//3 224//3 218//3
f 218//4 224//4 223//4 219//4
f 219//5 223//5 222//5 220//5
f 221//6 217//6 220//6 222//6
f 225//1 226//1 227//1 228//1
f 229//2 230//2 231//2 232//2
f 225//7 229//7 232//7 226//7
f 226//11 232//11 231//11 227//11
f 227//9 231//9 230//9 228//9
f 229//10 225//10 228//10 230//10
f 233//1 234//1 235//1 236//1
f 237//2 238//2 239//2 240//2
f 233//7 237//7 240//7 234//7
f 234//11 240//11 239//11 235//11
f 235//9 239//9 238//9 236//9
f 237//10 233//10 236//10 238//10
f 241//1 242//1 243//1 244//1
f 245//2 246//2 247//2 248//2
f 241//3 245//3 248//3 242//3
f 242//4 248//4 247//4 243//4
f 243//5 247//5 246//5 244//5
f 245//6 241//6 244//6 246//6
f 249//1 250//1 251//1 252//1
f 253//2 254//2 255//2 256//2
f 249//3 253//3 256//3 250//3
f 250//4 256//4 255//4 251//4
f 251//5 255//5 254//5 252//5
f 253//6 249//6 252//6 254//6
f 257//1 258//1 259//1 260//1
f 261//2 262//2 263//2 264//2
f 257//7 261//7 264//7 258//7
f 258//11 264//11 263//11 259//11
f 259//9 263//9 262//9 260//9
f 261//10 257//10 260//10 262//10
f 265//1 266//1 267//1 268//1
f 269//2 270//2 271//2 272//2
f 265//7 269//7 272//7 266//7
f 266//11 272//11 271//11 267//11
f 267//9 271//9 270//9 268//9
f 269//10 265//10 268//10 270//10
f 273//1 274//1 275//1 276//1
f 277//2 278//2 279//2 280//2
f 273//3 277//3 280//3 274//3
f 274//4 280//4 279//4 275//4
f 275//5 279//5 278//5 276//5
f 277//6 273//6 276//6 278//6
f 281//1 282//1 283//1 284//1
f 285//2 286//2 287//2 288//2
f 281//3 285//3 288//3 282//3
f 282//4 288//4 287//4 283//4
f 283//5 287//5 286//5 284//5
f 285//6 281//6 284//6 286//6
f 289//1 290//1 291//1 292//1
f 293//2 294//2 295//2 296//2
f 289//3 293//3 296//3 290//3
f 290//4 296//4 295//4 291//4
f 291//5 295//5 294//5 292//5
f 293//6 289//6 292//6 294//6
f 297//1 298//1 299//1 300//1
f 301//2 302//2 303//2 304//2
f 297//3 301//3 304//3 298//3
f 298//4 304//4 303//4 299//4
f 299//5 303//5 302//5 300//5
f 301//6 297//6 300//6 302//6
f 305//1 306//1 307//1 308//1
f 309//2 310//2 311//2 312//2
f 305//7 309//7 312//7 306//7
f 306//11 312//11 311//11 307//11
f 307//9 311//9 310//9 308//9
f 309//10 305//10 308//10 310//10
f 313//1 314//1 315//1 316//1
f 317//2 318//2 319//2 320//2
f 313//3 317//3 320//3 314//3
f 314//4 320//4 319//4 315//4
f 315//5 319//5 318//5 316//5
f 317//6 313//6 316//6 318//6
f 321//1 322//1 323//1 324//1
f 325//2 326//2 327//2 328//2
f 321//3 324//3 326//3 325//3
f 324//6 323//6 327//6 326//6
f 323//5 322//5 328//5 327//5
f 325//4 328//4 322//4 321//4
f 329//1 330//1 331//1 332//1
f 333//2 334//2 335//2 336//2
f 329//3 332//3 334//3 333//3
f 332//6 331//6 335//6 334//6
f 331//5 330//5 336//5 335//5
f 333//4 336//4 330//4 329//4
f 337//1 338//1 339//1 340//1
f 341//2 342//2 343//2 344//2
f 337//7 341//7 344//7 338//7
f 338//11 344//11 343//11 339//11
f 339//9 343//9 342//9 340//9
f 341//10 337//10 340//10 342//10
f 345//1 346//1 347//1 348//1
f 349//2 350//2 351//2 352//2
f 345//7 348//7 350//7 349//7
f 348//10 347//10 351//10 350//10
f 347//9 346//9 352//9 351//9
f 349//11 352//11 346//11 345//11
f 353//1 354//1 355//1 356//1
f 357//2 358//2 359//2 360//2
f 353//7 356//7 358//7 357//7
f 356//10 355//10 359//10 358//10
f 355//9 354//9 360//9 359//9
f 357//11 360//11 354//11 353//11
f 361//1 362//1 363//1 364//1
f 365//2 366//2 367//2 368//2
f 361//7 365//7 368//7 362//7
f 362//11 368//11 367//11 363//11
f 363//9 367//9 366//9 364//9
f 365//10 361//10 364//10 366//10
f 369//1 370//1 371//1 372//1
f 373//2 374//2 375//2 376//2
f 369//3 372//3 374//3 373//3
f 372//6 371//6 375//6 374//6
f 371//5 370//5 376//5 375//5
f 373//4 376//4 370//4 369//4
f 377//1 378//1 379//1 380//1
f 381//2 382//2 383//2 384//2
f 377//7 381//7 384//7 378//7
f 378//11 384//11 383//11 379//11
f 379//9 383//9 382//9 380//9
f 381//10 377//10 380//10 382//10
f 385//1 386//1 387//1 388//1
f 389//2 390//2 391//2 392//2
f 385//7 389//7 392//7 386//7
f 386//11 392//11 391//11 387//11
f 387//9 391//9 390//9 388//9
f 389//10 385//10 388//10 390//10
f 393//1 394//1 395//1 396//1
f 397//2 398//2 399//2 400//2
f 393//3 397//3 400//3 394//3
f 394//4 400//4 399//4 395//4
f 395//5 399//5 398//5 396//5
f 397//6 393//6 396//6 398//6
f 401//1 402//1 403//1 404//1
f 405//2 406//2 407//2 408//2
f 401//3 405//3 408//3 402//3
f 402//4 408//4 407//4 403//4
f 403//5 407//5 406//5 404//5
f 405//6 401//6 404//6 406//6
