# Blender v2.79 (sub 6) OBJ File: ''
# www.blender.org
mtllib piso10.mtl
o Cube_Cube.001
v -10.000000 0.040000 10.000000
v -10.000000 -0.040000 -10.000000
v -10.000000 -0.040000 10.000000
v -10.000000 0.040000 -10.000000
v 10.000000 -0.040000 -10.000000
v 10.000000 0.040000 -10.000000
v 10.000000 -0.040000 10.000000
v 10.000000 0.040000 10.000000
vt 0.193178 0.567693
vt 0.192143 0.912768
vt 0.192143 0.567693
vt 0.193178 0.912768
vt 0.194212 0.567693
vt 0.194212 0.912768
vt 0.196280 0.567693
vt 0.195246 0.912768
vt 0.195246 0.567693
vt 0.195246 0.567693
vt 0.194212 0.912768
vt 0.194212 0.567693
vt 0.450674 0.567693
vt 0.709205 0.222618
vt 0.709205 0.567693
vt 0.450674 0.567693
vt 0.192143 0.222618
vt 0.450674 0.222618
vt 0.193178 0.567693
vt 0.196280 0.912768
vt 0.195246 0.912768
vt 0.450674 0.222618
vt 0.192143 0.567693
vn -1.0000 0.0000 0.0000
vn 0.0000 0.0000 -1.0000
vn 1.0000 0.0000 0.0000
vn 0.0000 0.0000 1.0000
vn 0.0000 -1.0000 -0.0000
vn 0.0000 1.0000 0.0000
usemtl Material.001
s 1
f 1/1/1 2/2/1 3/3/1
f 4/4/2 5/5/2 2/6/2
f 6/7/3 7/8/3 5/9/3
f 8/10/4 3/11/4 7/12/4
f 5/13/5 3/14/5 2/15/5
f 4/16/6 8/17/6 6/18/6
f 1/1/1 4/4/1 2/2/1
f 4/4/2 6/19/2 5/5/2
f 6/7/3 8/20/3 7/8/3
f 8/10/4 1/21/4 3/11/4
f 5/13/5 7/22/5 3/14/5
f 4/16/6 1/23/6 8/17/6
